# xmcd CD database file
#
# Track frame offsets:
#	150
#	49065
#	84771
#	122963
#	158366
#	182401
#	210234
#	243264
#
# Disc length: 3530 seconds
#
# Revision: 0
# Processed by: cddbd v1.5.2PL0 Copyright (c) Steve Scherf et al.
# Submitted via: CDex 1.70beta3
#
DISCID=520dc808
DTITLE=赤松敏弘 - アクシス
DYEAR=2010
DGENRE=Jazz
TTITLE0=リターン・トゥ・フォーエバー
TTITLE1=オーバー・アゲイン
TTITLE2=サウンド・オブ・フォーカス
TTITLE3=アクシス
TTITLE4=サイレント・バトラー
TTITLE5=チアフル・フライト
TTITLE6=ハヴォナ
TTITLE7=アイ・ソート・アバウト・ユー
EXTD=YEAR: 2010
EXTT0=
EXTT1=
EXTT2=
EXTT3=
EXTT4=
EXTT5=
EXTT6=
EXTT7=
PLAYORDER=
